# xmcd
# Track frame offsets:
# 150
# 13624
# 31952
# 45134
# 68790
# 81739
# 89038
# 101875
#
# Disc length: 1589 seconds
# Revision: 0
# Processed by: cddbd v1.5.2PL0 Copyright (c) Steve Scherf et al.
# Submitted via: VisiTrax 2.11.0.264 - For more info visit www.synapsa.com
#
DISCID=64063308
DTITLE=Jug - All Plugged Up
DYEAR=2001
DGENRE=
TTITLE0=Ball Of Wax
TTITLE1=Old Joe Clark
TTITLE2=Camptown Races
TTITLE3=Ben Fenn
TTITLE4=Needy Song
TTITLE5=Little Brown Jug
TTITLE6=Going Nowhere Slow
TTITLE7=Fight To Survive
EXTD=
EXTT0=
EXTT1=
EXTT2=
EXTT3=
EXTT4=
EXTT5=
EXTT6=
EXTT7=
PLAYORDER=
